<svg width="151" height="150" viewBox="0 0 151 150" fill="none" xmlns="http://www.w3.org/2000/svg">
<circle cx="60.5" cy="85" r="7" fill="#61EDEA"/>
<circle cx="51.5" cy="85" r="7" fill="#61EDEA"/>
<path d="M108.629 52.5983H100.586C100.586 52.5937 100.589 52.5898 100.589 52.5851C100.495 48.3942 97.0235 45.0993 92.8184 45.1515C90.3815 45.2055 88.2398 46.4113 86.8872 48.2316L86.8682 44.7126C86.9277 40.5202 83.5654 37.0607 79.374 37.0006C77.332 36.9757 75.3692 37.6711 73.8731 38.9723C72.3164 40.3254 71.4434 42.1798 71.4141 44.2052V44.6892C70.0503 42.8407 67.8765 41.6213 65.4082 41.5856C63.4033 41.5504 61.3506 42.3542 59.7949 43.7736C58.207 45.2223 57.2803 47.196 57.252 49.1984V52.1529C56.1027 50.8277 54.4317 50.0167 52.6484 49.9909C50.6014 49.9828 48.6063 50.9577 47.3188 52.5983H41.291C38.6494 52.5983 36.5 54.7477 36.5 57.3898V96.3361C36.5 98.9787 38.6494 101.128 41.291 101.128H43.475L43.4141 105.384C43.6289 123.383 57.2705 136.955 75.1445 136.955C83.5049 136.955 91.1387 134.269 96.6416 129.392C102.695 124.027 105.895 116.355 105.895 107.205C105.895 107.19 105.887 107.177 105.886 107.162C105.887 107.147 105.895 107.134 105.895 107.118V101.128H108.629C111.271 101.128 113.421 98.9787 113.421 96.3361V57.3898C113.421 54.7477 111.271 52.5983 108.629 52.5983ZM38.0293 64.1129H111.892V68.6129H38.0293V64.1129ZM92.8526 46.6515C96.2217 46.5711 99.0024 49.2427 99.0874 52.5983H86.9108L86.9087 52.2178C87.1763 49.1599 89.7149 46.7207 92.8526 46.6515ZM74.8574 40.1042C76.0742 39.0456 77.6651 38.4762 79.3526 38.5006C82.7178 38.549 85.416 41.3258 85.3682 44.7057L85.4082 52.1358C85.396 52.2881 85.3972 52.4437 85.3941 52.5983H72.9141V44.216C72.9365 42.6339 73.627 41.1735 74.8574 40.1042ZM60.8067 44.8815C62.082 43.717 63.752 43.0412 65.3867 43.0856C68.752 43.1339 71.4502 45.9113 71.4024 49.276C71.4021 49.2982 71.4125 49.3169 71.4141 49.3386V52.5983H58.752V49.2091C58.7744 47.6066 59.5039 46.0695 60.8067 44.8815ZM52.627 51.4909C53.7207 51.5066 54.759 51.9136 55.5796 52.5983H49.4291C50.3525 51.8844 51.4932 51.4631 52.627 51.4909ZM41.291 54.1276H108.629C110.428 54.1276 111.892 55.591 111.892 57.3898V62.613H38.0293V57.3898C38.0293 55.591 39.4922 54.1276 41.291 54.1276ZM75.1445 135.455C58.1152 135.455 45.1191 122.52 44.9141 105.386L44.9753 101.128H83.9915C76.386 104.387 74.8644 111.959 74.6836 113.036C74.6143 113.445 74.8906 113.831 75.2988 113.9C75.3408 113.907 75.3828 113.91 75.4238 113.91C75.7832 113.91 76.1006 113.651 76.1621 113.284C76.3721 112.035 78.583 101.141 91.8779 101.141C91.9512 101.141 92.0254 101.141 92.0986 101.142C92.5059 101.13 92.8516 100.813 92.8555 100.399C92.8557 100.37 92.8429 100.346 92.8401 100.319C92.8728 100.234 92.8945 100.145 92.8945 100.049V86.59C92.8467 83.2946 95.3115 80.8669 98.7559 80.8171C98.7871 80.8166 98.8184 80.8161 98.8506 80.8161C102.07 80.8161 104.345 83.1862 104.395 86.6008V107.118C104.395 107.134 104.402 107.147 104.403 107.162C104.402 107.177 104.395 107.19 104.395 107.205C104.395 121.267 95.3506 135.455 75.1445 135.455ZM108.629 99.5988H105.895V86.59C105.832 82.3175 102.811 79.2677 98.7344 79.3171C96.0408 79.3561 93.7891 80.6367 92.516 82.613H77.2178C76.8037 82.613 76.4678 82.9489 76.4678 83.363C76.4678 83.777 76.8037 84.113 77.2178 84.113H91.7938C91.5564 84.8033 91.4219 85.545 91.4043 86.3255C91.4032 86.3425 91.3945 86.3569 91.3945 86.3742V99.5988H41.291C39.4922 99.5988 38.0293 98.1349 38.0293 96.3361V70.113H111.892V96.3361C111.892 98.1349 110.428 99.5988 108.629 99.5988Z" fill="black"/>
<path d="M60.2646 77.6129C58.5815 77.6129 57.0269 78.1581 55.7546 79.0729C54.4373 78.1294 52.9001 77.6129 51.2646 77.6129C46.9912 77.6129 43.5146 81.0895 43.5146 85.3629C43.5146 89.6368 46.9912 93.1134 51.2646 93.1134C52.8804 93.1134 54.46 92.599 55.7683 91.6636C57.0378 92.5724 58.5876 93.1134 60.2646 93.1134C64.5381 93.1134 68.0146 89.6368 68.0146 85.3629C68.0146 81.0895 64.5381 77.6129 60.2646 77.6129ZM45.0146 85.3629C45.0146 81.9166 47.8184 79.1129 51.2646 79.1129C52.4653 79.1129 53.5985 79.4634 54.5947 80.0971C53.3083 81.4811 52.5146 83.3289 52.5146 85.3629C52.5146 87.3973 53.3086 89.2454 54.595 90.6295C53.6006 91.257 52.4492 91.6134 51.2646 91.6134C47.8184 91.6134 45.0146 88.8097 45.0146 85.3629ZM60.2646 91.6134C56.8184 91.6134 54.0146 88.8097 54.0146 85.3629C54.0146 81.9166 56.8184 79.1129 60.2646 79.1129C63.7109 79.1129 66.5146 81.9166 66.5146 85.3629C66.5146 88.8097 63.7109 91.6134 60.2646 91.6134Z" fill="#231F20"/>
<path d="M77.2178 90.1134H87.2178C87.6318 90.1134 87.9678 89.7775 87.9678 89.3634C87.9678 88.9493 87.6318 88.6134 87.2178 88.6134H77.2178C76.8037 88.6134 76.4678 88.9493 76.4678 89.3634C76.4678 89.7775 76.8037 90.1134 77.2178 90.1134Z" fill="#231F20"/>
<rect x="36.5" y="63" width="76" height="6" fill="black"/>
<path d="M125.776 59.772C125.789 59.774 125.8 59.78 125.809 59.79L125.81 59.79C125.897 59.8967 126.009 59.9804 126.136 60.0335C126.263 60.0867 126.401 60.1078 126.539 60.095C126.676 60.098 126.812 60.073 126.939 60.021C127.066 59.969 127.182 59.893 127.279 59.796L127.346 59.699C127.497 59.5115 127.583 59.2798 127.592 59.039L127.592 59.036C127.609 58.9311 127.6 58.8235 127.566 58.723C127.531 58.6227 127.472 58.5324 127.395 58.46C127.349 58.4069 127.308 58.35 127.273 58.29C127.151 58.0234 126.858 58.012 126.575 58.001L126.574 58.001L126.552 58L126.372 58.04L126.364 58.0415C126.151 58.0852 125.891 58.1388 125.816 58.294L125.673 58.53C125.554 58.6741 125.493 58.8567 125.501 59.043C125.535 59.477 125.637 59.75 125.776 59.772Z" fill="#111111"/>
<path d="M47.8746 137.164C47.8786 137.019 47.8824 136.878 47.8785 136.736L47.8815 136.736C47.8775 136.614 47.8465 136.495 47.7875 136.389C47.7285 136.283 47.6455 136.192 47.5455 136.125C47.4461 136.043 47.3211 135.999 47.1925 136C47.0635 136 46.9395 136.046 46.8405 136.129C46.7004 136.234 46.5842 136.367 46.4997 136.52C46.4152 136.673 46.3643 136.843 46.3505 137.017C46.3383 137.134 46.3333 137.252 46.3355 137.369L46.3315 137.613C46.3318 137.685 46.3284 137.757 46.3215 137.828C46.3197 137.886 46.3053 137.943 46.2794 137.995C46.2535 138.046 46.2167 138.092 46.1715 138.128C46.1261 138.164 46.0736 138.19 46.0175 138.204C45.9615 138.218 45.9035 138.22 45.8465 138.209C45.7874 138.203 45.7289 138.193 45.6715 138.178L45.5275 138.15L45.4435 138.141C45.336 138.124 45.2269 138.121 45.1185 138.13C44.9475 138.142 44.7865 138.22 44.6715 138.348C44.5562 138.477 44.4949 138.645 44.5005 138.817L44.5005 138.829C44.4943 138.99 44.5486 139.146 44.6527 139.269C44.7568 139.391 44.9031 139.47 45.0625 139.489C45.1555 139.507 45.2505 139.518 45.3455 139.522L45.4955 139.533L45.5805 139.54C45.6924 139.547 45.8039 139.56 45.9145 139.579C46.0055 139.594 46.0905 139.635 46.1595 139.696C46.2285 139.758 46.2785 139.838 46.3035 139.928L46.6625 140.871C46.7118 141.006 46.799 141.124 46.9135 141.211C47.0275 141.298 47.1645 141.35 47.3075 141.36C47.4425 141.377 47.5795 141.342 47.6915 141.264C47.8035 141.186 47.8815 141.068 47.9115 140.934C47.9345 140.813 47.9375 140.69 47.9205 140.568C47.9098 140.505 47.8947 140.442 47.8755 140.381L47.8385 140.237C47.8166 140.152 47.8146 140.064 47.8325 139.978C47.8511 139.892 47.8887 139.812 47.9425 139.742C48.0018 139.682 48.0744 139.636 48.1545 139.609C48.2347 139.581 48.3204 139.573 48.4045 139.585C48.4615 139.59 48.5185 139.599 48.5745 139.611C48.6445 139.627 48.7155 139.637 48.7865 139.641L48.8565 139.641C49.0343 139.65 49.2125 139.635 49.3865 139.597C49.5251 139.566 49.6485 139.487 49.7355 139.375C49.8225 139.263 49.8685 139.124 49.8645 138.981C49.8638 138.918 49.8561 138.856 49.8415 138.795C49.8085 138.621 49.7167 138.464 49.5815 138.35C49.4473 138.236 49.2776 138.172 49.1015 138.169L48.7955 138.166L48.5725 138.165C48.4557 138.167 48.3409 138.134 48.2433 138.07C48.1457 138.005 48.0698 137.913 48.0255 137.805C47.9275 137.608 47.8755 137.39 47.8745 137.17L47.8746 137.164Z" fill="#111111"/>
<path d="M23.5912 98.264C23.5162 98.472 23.4872 98.695 23.5052 98.916L23.5072 98.916C23.5462 99.232 23.6542 99.536 23.8232 99.803C23.9911 100.069 24.2167 100.295 24.4832 100.463C24.7642 100.669 25.1102 100.762 25.4542 100.724L25.5252 100.716L26.2312 100.645C26.3792 100.652 26.5262 100.613 26.6522 100.535C26.7782 100.457 26.8802 100.342 26.9432 100.205L27.3052 99.26L27.4532 98.863C27.4632 98.839 27.4682 98.814 27.4662 98.788L27.4662 98.584C27.4676 98.49 27.4619 98.3961 27.4492 98.303C27.3632 97.751 27.0712 97.462 26.4412 97.308C26.2402 97.2586 26.0433 97.1941 25.8522 97.115C25.6872 97.039 25.5082 97 25.3272 97C25.1462 97 24.9672 97.039 24.8022 97.115C24.5319 97.2093 24.2848 97.3599 24.0772 97.557C23.8676 97.7561 23.702 97.997 23.5912 98.264Z" fill="#111111"/>
<path d="M121.139 109.95C121.17 109.883 121.191 109.812 121.203 109.74C121.213 109.649 121.204 109.557 121.178 109.47C121.153 109.383 121.109 109.302 121.052 109.232C120.998 109.165 120.93 109.11 120.854 109.069C120.778 109.03 120.694 109.006 120.609 109.001C120.512 108.996 120.415 109.011 120.324 109.044C120.232 109.078 120.149 109.129 120.078 109.195C119.932 109.332 119.845 109.519 119.835 109.718C119.82 109.806 119.812 109.896 119.812 109.986C119.81 110.164 119.776 110.339 119.71 110.504C119.663 110.614 119.636 110.732 119.633 110.851C119.627 111.13 119.58 111.407 119.494 111.672L119.387 112.08L119.334 112.295C119.308 112.395 119.273 112.441 119.255 112.447C119.238 112.453 119.194 112.442 119.126 112.391C118.927 112.243 118.74 112.079 118.568 111.901C118.45 111.766 118.31 111.651 118.155 111.561C117.901 111.437 117.701 111.219 117.599 110.951C117.57 110.871 117.525 110.798 117.465 110.737C117.407 110.676 117.336 110.629 117.257 110.599L116.845 110.487L116.709 110.455C116.674 110.448 116.639 110.45 116.605 110.461C116.519 110.487 116.441 110.536 116.38 110.602C116.318 110.669 116.274 110.75 116.254 110.839C116.214 110.955 116.203 111.079 116.223 111.2C116.242 111.321 116.29 111.435 116.364 111.533C116.429 111.605 116.497 111.673 116.57 111.737L116.628 111.788L117.355 112.458L117.455 112.542C117.494 112.571 117.531 112.603 117.567 112.637L117.672 112.741C117.789 112.849 117.898 112.966 118 113.089C118.027 113.116 118.048 113.148 118.063 113.184C118.078 113.219 118.085 113.257 118.085 113.295C118.073 113.341 118.017 113.373 117.971 113.393L117.287 113.674L117.03 113.777C117.009 113.767 116.985 113.766 116.963 113.773L116.859 113.806C116.775 113.83 116.692 113.86 116.611 113.894C116.484 113.947 116.365 114.015 116.254 114.096C116.171 114.172 116.068 114.225 115.956 114.247C115.835 114.257 115.722 114.314 115.643 114.406C115.562 114.499 115.52 114.62 115.524 114.744L115.516 114.824C115.502 114.924 115.497 115.025 115.502 115.126C115.502 115.206 115.519 115.285 115.551 115.358C115.583 115.431 115.63 115.496 115.689 115.549C115.741 115.59 115.801 115.619 115.866 115.635C115.93 115.651 115.997 115.652 116.062 115.639L116.413 115.596L116.626 115.573C116.673 115.572 116.72 115.563 116.766 115.549L117.457 115.299L117.625 115.238L117.765 115.183L118.031 115.076L118.568 114.861C118.647 114.83 118.651 114.835 118.67 114.855L118.67 114.856C118.69 114.879 118.704 114.907 118.711 114.937C118.717 114.967 118.716 114.998 118.707 115.027C118.675 115.257 118.589 115.476 118.458 115.667C118.354 115.786 118.281 115.928 118.244 116.083C118.207 116.238 118.208 116.4 118.247 116.554C118.272 116.72 118.24 116.889 118.158 117.034C118.114 117.139 118.094 117.253 118.101 117.367C118.107 117.481 118.14 117.592 118.196 117.692C118.227 117.774 118.281 117.845 118.351 117.899C118.42 117.952 118.502 117.985 118.588 117.993C118.736 118.015 118.887 117.986 119.017 117.911C119.148 117.835 119.25 117.718 119.308 117.578C119.454 117.275 119.532 116.943 119.534 116.607C119.531 116.505 119.544 116.402 119.571 116.304L119.6 116.143L119.682 115.578C119.688 115.507 119.701 115.436 119.721 115.368C119.733 115.317 119.756 115.27 119.788 115.229C119.821 115.189 119.862 115.156 119.908 115.135C119.955 115.12 120.004 115.116 120.053 115.124C120.102 115.132 120.148 115.151 120.188 115.179C120.23 115.207 120.271 115.236 120.31 115.268C120.353 115.304 120.398 115.338 120.445 115.368L120.519 115.415C120.661 115.51 120.809 115.597 120.961 115.673C121.088 115.722 121.197 115.809 121.272 115.922C121.374 116.09 121.519 116.229 121.691 116.326C121.742 116.352 121.788 116.387 121.827 116.428C121.961 116.585 122.118 116.721 122.294 116.831C122.363 116.89 122.422 116.958 122.47 117.035C122.516 117.115 122.579 117.185 122.655 117.238C122.73 117.29 122.817 117.323 122.908 117.336C122.985 117.336 123.062 117.317 123.131 117.282C123.201 117.246 123.262 117.194 123.308 117.131C123.424 117.011 123.492 116.854 123.5 116.688C123.487 116.494 123.401 116.312 123.261 116.177L123.182 116.1C123.161 116.081 123.139 116.061 123.119 116.039L123.016 115.926C122.925 115.835 122.842 115.735 122.767 115.63C122.608 115.387 122.408 115.175 122.178 115.003C121.902 114.798 121.663 114.549 121.469 114.266C121.382 114.139 121.34 114.054 121.375 113.956C121.413 113.852 121.476 113.804 121.565 113.814C121.837 113.832 122.108 113.782 122.356 113.669L122.558 113.597C122.626 113.572 122.69 113.536 122.746 113.489L122.786 113.461L122.918 113.364C122.987 113.313 123.055 113.262 123.128 113.217C123.215 113.162 123.287 113.087 123.339 113C123.392 112.911 123.423 112.811 123.431 112.707C123.442 112.576 123.423 112.445 123.375 112.323C123.329 112.201 123.255 112.092 123.159 112.003C123.111 111.955 123.05 111.921 122.984 111.903C122.918 111.887 122.85 111.888 122.784 111.907L122.586 111.962C122.311 112.023 122.047 112.127 121.806 112.272C121.735 112.313 121.659 112.343 121.579 112.362L121.481 112.393L121.306 112.448L121.043 112.535C120.986 112.56 120.923 112.575 120.86 112.576C120.797 112.577 120.735 112.565 120.676 112.541C120.558 112.491 120.519 112.448 120.505 112.279C120.49 112.184 120.494 112.086 120.518 111.993C120.542 111.9 120.586 111.814 120.647 111.739C120.848 111.52 120.961 111.236 120.967 110.94L121.03 110.274C121.04 110.217 121.056 110.162 121.079 110.109L121.108 110.03L121.139 109.95Z" fill="#111111"/>
<path d="M45.6705 23.8076C45.7161 23.7221 43.7749 23.0807 43.4901 23.1417C42.1567 23.0919 42.8796 22.2569 43.0936 22.143C43.6092 21.8375 44.3149 21.0131 44.4792 20.8745C44.6498 20.8457 44.8318 20.4814 44.7915 20.6398C44.9976 20.1754 45.0913 20.2337 44.8705 19.9411C44.8403 19.8463 44.7568 19.7924 44.595 19.768C44.4759 19.5819 44.2566 19.7748 44.1891 19.8685C44.3303 19.8932 44.1434 19.9043 43.941 20.0738C43.7816 20.2973 43.4839 20.3849 43.0418 20.8116C42.4765 21.0596 41.43 22.1872 42.04 20.3903C42.1351 19.9215 42.2107 19.7242 42.2906 19.1164L42.5327 17.9937C42.547 17.9309 42.5488 17.8659 42.538 17.8024C42.5272 17.7388 42.5039 17.6781 42.4696 17.6236C42.4352 17.569 42.3905 17.5218 42.3379 17.4846C42.2853 17.4474 42.2259 17.421 42.163 17.4068C42.0999 17.394 42.0348 17.3938 41.9716 17.4062C41.9084 17.4186 41.8483 17.4433 41.7946 17.479C41.741 17.5146 41.6949 17.5605 41.659 17.614C41.6231 17.6675 41.5981 17.7275 41.5855 17.7907C41.6666 17.8125 41.4901 18.1956 41.3434 18.9134C41.2562 19.3481 40.9117 20.2564 40.8107 20.8205C40.7375 21.8347 40.3029 21.2856 40.0443 21.0209C39.7947 20.6833 38.1545 19.4805 38.3574 19.3721C38.1084 19.1871 38.1085 19.2105 38.0864 19.2044C37.7073 19.2638 37.7283 19.2003 37.6744 19.3086C37.5502 19.6607 37.2328 19.8225 37.606 20.0074C37.3233 20.1439 37.9348 20.3568 38.4241 21.022C38.6237 21.2958 38.5977 21.3688 38.8521 21.6657C39.4302 22.1121 39.146 22.3598 38.6619 22.2188C38.1465 22.053 36.6018 21.7497 36.6673 21.8723C36.4855 22.0506 36.1035 21.877 36.0892 22.2555C36.2629 22.5172 36.3082 22.9865 36.4581 22.8431C36.5337 22.9467 37.1249 22.9543 37.8645 23.1454C38.5579 23.212 38.3027 23.3081 38.7402 23.3381C38.8778 23.3633 39.3841 23.8703 38.7562 24.2968C38.4312 24.7568 38.4045 24.6275 37.991 24.9607C37.55 25.215 37.4672 25.3634 37.1697 25.5582C36.9623 25.7528 36.9703 25.9422 36.8437 25.9038C36.5883 26.0042 36.5249 26.6177 36.7654 26.6019C36.9577 26.8204 37.1498 26.6714 37.4476 26.6753C37.4181 26.5784 37.5309 26.6469 37.7407 26.4149C37.8368 26.2775 38.2438 25.8046 38.5948 25.7322C38.9883 25.4682 39.0109 25.3353 39.4054 25.077C39.8513 24.6301 40.142 24.7747 39.9854 25.5676C39.9304 26.0576 39.7987 26.0457 39.8053 26.1946C39.8344 26.6633 39.4509 27.0352 39.5034 27.4619C39.3859 28.1368 39.2186 28.4952 39.262 28.5854C39.0513 28.8692 39.3743 29.2038 39.6309 29.173C39.9309 29.3596 40.299 29.0267 40.2099 28.7892C40.1642 28.8932 40.2918 28.2661 40.4505 27.6664C40.5231 27.3958 40.5573 26.9339 40.6351 26.443C40.8132 25.9997 40.6964 26.2303 40.857 25.6748C40.8571 25.5151 41.2523 24.4608 42.0221 25.4833C42.4562 26.19 42.7134 26.8051 42.8402 26.4979C43.2229 26.7219 43.396 26.513 43.524 26.5608C43.6701 26.1509 43.7378 25.9133 43.5924 25.8619C43.7634 25.7451 43.4786 25.4045 42.7736 24.848C41.9044 23.9419 42.8377 24.2169 43.0025 24.2649C43.5482 24.4666 43.5835 24.5689 44.054 24.4768C45.0536 24.8319 45.3622 24.7573 45.4604 24.7791C45.7953 24.9309 46.0724 24.6251 46.0386 24.3959C46.1426 24.0399 45.9168 23.639 45.6705 23.8076Z" fill="#111111"/>
<path d="M94.9999 17.5L95.9999 12.5L99.738 15.7242L104.993 15.7242L103 20.5L105 24.5L99.738 23.9164L96.4999 27.5L95.5823 22.0413L90.4999 19.9487L94.9999 17.5Z" fill="#1BDBDB"/>
<path d="M96.17 28.6686C96.3897 28.7057 96.6155 28.6539 96.7975 28.5238C96.8556 28.5184 96.91 28.4929 96.9512 28.4517C97.0035 28.4008 97.0459 28.3406 97.0763 28.2742L97.4346 27.9143C97.5298 27.8209 97.5927 27.6985 97.6138 27.5668C97.7259 27.5246 97.8276 27.4558 97.9103 27.3677L98.398 26.8371C98.6511 26.5804 98.6216 26.5516 98.874 26.2955C99.1263 26.0394 99.1939 26.1041 99.4463 25.848C99.5472 25.7458 99.6382 25.635 99.7164 25.5153C99.8207 25.4993 99.9172 25.4493 99.9891 25.3717C100.241 25.1156 100.077 24.9597 100.421 24.8555C100.538 24.8087 100.664 24.7888 100.791 24.7974C100.895 24.8588 101.008 24.9018 101.127 24.9245L101.859 25.0958C102.027 25.1294 102.193 25.1767 102.354 25.2371C102.421 25.2845 102.498 25.3162 102.579 25.33C102.651 25.3446 102.726 25.3414 102.797 25.3208C102.977 25.3225 103.156 25.3377 103.333 25.3662C103.509 25.3955 103.687 25.413 103.866 25.4185C103.93 25.4527 104 25.4763 104.072 25.4884C104.172 25.5101 104.277 25.5105 104.377 25.4895C104.527 25.4951 104.676 25.5117 104.824 25.5394C104.952 25.5642 105.082 25.5779 105.213 25.5802C105.32 25.6347 105.436 25.6729 105.556 25.6923C105.705 25.7206 105.86 25.6947 105.992 25.6186C106.078 25.5974 106.153 25.5484 106.206 25.4777L106.14 25.431C106.197 25.3528 106.233 25.26 106.24 25.1634C106.347 25.0106 106.431 24.8467 106.351 24.7059C106.167 24.3787 106.064 24.4367 105.88 24.1095C105.815 23.9891 105.719 23.8888 105.602 23.8178C105.592 23.6941 105.553 23.5738 105.489 23.4669C105.305 23.1411 105.255 23.1688 105.071 22.8424C104.999 22.7179 104.95 22.5813 104.927 22.4392C104.93 22.3245 104.899 22.2112 104.84 22.1132C104.656 21.7875 104.691 21.767 104.506 21.4413C104.327 21.1231 104.189 21.188 104.012 20.8877L104 20.8676C103.817 20.5419 103.617 20.5889 103.604 20.2152C103.596 20.154 103.603 20.0919 103.623 20.0338C103.644 19.9761 103.677 19.924 103.721 19.8817C103.853 19.8247 103.962 19.7275 104.032 19.6036C104.194 19.2802 104.244 19.305 104.405 18.9816C104.567 18.6582 104.411 18.5819 104.571 18.2591C104.732 17.9364 104.672 17.9064 104.832 17.5843C104.992 17.2622 105.113 17.3221 105.274 16.9994L105.576 16.3466C105.631 16.2387 105.677 16.1263 105.714 16.0105C105.835 15.9608 105.934 15.8677 105.991 15.7494C106.013 15.6896 106.021 15.6257 106.012 15.5625C106.003 15.4997 105.979 15.4399 105.942 15.3884C105.956 15.3249 105.957 15.2598 105.944 15.197C105.932 15.1333 105.908 15.0726 105.872 15.0184C105.819 14.9539 105.752 14.9023 105.676 14.8676C105.599 14.8328 105.516 14.8165 105.433 14.8187C105.37 14.7917 105.3 14.7824 105.232 14.7917C104.87 14.8448 104.884 14.9822 104.532 15.0369L104.519 15.0392C104.151 15.0926 104.12 14.8742 103.753 14.9275C103.686 14.9364 103.619 14.9524 103.555 14.9754L103.025 15.0581L102.63 15.1254C102.519 15.0869 102.4 15.0776 102.285 15.0976C102.012 15.1369 101.958 15.2572 101.797 15.338C101.726 15.3596 101.653 15.3755 101.579 15.3855L101.447 15.4069C101.201 15.3918 101.13 15.2212 100.816 15.2669C100.451 15.3197 100.505 15.5103 100.155 15.3947L99.8243 15.2829C99.8061 15.1451 99.7439 15.0171 99.6473 14.9181C99.3738 14.6529 99.4003 14.6254 99.1275 14.361C99.0374 14.27 98.9193 14.212 98.7923 14.1963C98.7525 14.0603 98.6769 13.9374 98.5733 13.8407C98.4709 13.7389 98.337 13.6748 98.1935 13.6587C98.162 13.5362 98.0962 13.4255 98.0027 13.3396C97.8624 13.2198 97.6917 13.1401 97.5099 13.109L97.3388 12.9341C97.2845 12.8807 97.2274 12.8301 97.1678 12.7827C97.0893 12.6121 97.1308 12.4659 96.9274 12.2698C96.656 12.0056 96.5541 12.1112 96.2827 11.8469C96.2015 11.7584 96.0978 11.6928 95.9828 11.659C95.8679 11.6251 95.7453 11.6225 95.6285 11.6531C95.5926 11.6732 95.5618 11.7012 95.5384 11.735C95.515 11.7688 95.4996 11.8075 95.4935 11.8481C95.464 11.8479 95.4349 11.8542 95.4082 11.8665C95.3816 11.8784 95.358 11.897 95.3391 11.9195C95.3144 11.96 95.306 12.009 95.3155 12.0559C95.2149 12.0949 95.0929 12.1286 95.084 12.2002C95.0429 12.5593 95.2615 12.5842 95.2204 12.9434C95.184 13.2646 94.9862 13.2784 94.9162 13.535C94.9064 13.5668 94.8993 13.6003 94.8952 13.6326C94.8942 13.6438 94.8943 13.6517 94.8941 13.6623C94.8648 13.9905 95.0035 14.02 94.9642 14.3672C94.9232 14.725 94.815 14.7129 94.774 15.0707C94.7437 15.3357 94.8587 15.4192 94.9032 15.5897C94.8865 15.6614 94.874 15.7334 94.8663 15.8066C94.8478 15.9583 94.8006 16.1055 94.7282 16.2398C94.6808 16.3217 94.6511 16.4121 94.6439 16.5059C94.6336 16.593 94.6453 16.6813 94.6774 16.7628C94.7131 16.9198 94.7736 17.0101 94.6271 17.2148C94.417 17.5086 94.2694 17.2732 93.9432 17.4294C93.6171 17.5855 93.6816 17.7195 93.3555 17.8756C93.2811 17.9122 93.2035 17.9417 93.1237 17.9638C92.9646 17.9883 92.8097 18.0349 92.6635 18.1022L91.9996 18.3838L91.3465 18.6627L90.7019 19.009C90.5681 19.0722 90.4435 19.1524 90.3303 19.2479C90.2315 19.2347 90.1311 19.2519 90.0423 19.2973C89.898 19.3666 89.8689 19.5352 89.866 19.7116C89.8493 19.7989 89.8412 19.887 89.8415 19.9757C89.84 20.219 89.858 20.4668 90.0761 20.5732L90.4923 20.7533C90.5528 20.8435 90.6369 20.9138 90.7361 20.9584C90.8743 21.0276 91.0239 21.0701 91.1773 21.0859L91.4537 21.2243C91.5553 21.2773 91.6664 21.3094 91.7806 21.3187C91.9152 21.3635 92.0469 21.4172 92.1742 21.4812C92.5157 21.6471 92.4505 21.7793 92.7912 21.9458C93.132 22.1124 93.1593 22.0579 93.5006 22.2252L94.1785 22.5665C94.5131 22.7304 94.6777 22.5549 94.9008 22.8364L94.9111 22.8486C94.9501 22.8995 94.9838 22.9534 95.0116 23.0111C95.0954 23.1942 95.0372 23.3113 95.0892 23.6024C95.1544 23.9713 94.9087 24.0151 94.9748 24.3833C94.9876 24.4689 95.0197 24.5505 95.0688 24.6219C95.0625 24.7881 95.0731 24.9545 95.1005 25.1185C95.1652 25.4852 95.3043 25.4608 95.369 25.8275C95.4337 26.1942 95.3342 26.2127 95.3996 26.5802L95.504 27.107C95.4851 27.1792 95.4822 27.2549 95.4966 27.3278C95.511 27.4007 95.5413 27.4707 95.5852 27.5305L95.696 28.0402C95.7215 28.1743 95.7773 28.3008 95.859 28.4102C95.9415 28.5191 96.0479 28.6075 96.17 28.6686ZM96.6044 25.1672C96.5907 25.0688 96.5547 24.9749 96.5006 24.8923C96.454 24.7563 96.4176 24.6156 96.3935 24.4737C96.3727 24.3499 96.3405 24.2279 96.298 24.1094C96.3121 23.9941 96.3076 23.8773 96.2848 23.7634L96.2226 23.3408C96.2352 23.2426 96.2309 23.1428 96.2115 23.0454C96.1485 22.6916 96.07 22.7055 96.007 22.3518C95.9937 22.274 95.9624 22.1997 95.9153 22.1361C95.9113 21.9732 95.9014 21.8063 95.78 21.7478C95.455 21.589 95.4034 21.6953 95.0783 21.5365C94.9609 21.4761 94.8291 21.4493 94.6975 21.4588C94.6231 21.3645 94.5273 21.2897 94.4187 21.24C94.0943 21.0819 94.0694 21.133 93.7443 20.9742C93.6187 20.9151 93.5055 20.8325 93.4108 20.7309C93.3522 20.6367 93.2669 20.5621 93.1657 20.5164C92.8421 20.3577 92.8593 20.3223 92.5357 20.1636C92.2242 20.0116 91.8644 20.3139 91.8207 20.0171C91.8188 20.0056 91.8152 19.9982 91.8149 19.9854C91.7977 19.644 92.1145 19.8071 92.4222 19.66C92.5399 19.603 92.6621 19.5559 92.7875 19.5193C92.8906 19.5344 92.9956 19.5177 93.0884 19.4695C93.3961 19.3225 93.4202 19.3728 93.7271 19.2263C94.034 19.0799 93.9593 18.9231 94.2662 18.7767C94.5731 18.6303 94.5443 18.5682 94.852 18.4211C95.1597 18.274 95.2168 18.396 95.5237 18.2495C95.621 18.1975 95.704 18.1222 95.7657 18.0309C95.8272 17.9394 95.8651 17.8341 95.8761 17.7245C95.8905 17.6095 95.8946 17.4935 95.8885 17.3778C95.9849 17.2951 96.0451 17.1789 96.0586 17.0537C96.072 16.9285 96.05 16.8032 95.9875 16.695C96.0314 16.5895 96.059 16.4779 96.0695 16.3641C96.0849 16.2072 96.0797 16.0506 96.056 15.8953C96.079 15.8249 96.0944 15.7517 96.1022 15.6771C96.1404 15.3426 96.0039 15.3204 96.0379 14.9947L96.039 14.982C96.0778 14.6418 96.2964 14.6667 96.3359 14.3259C96.3315 14.1517 96.2878 13.9805 96.2087 13.8248C96.2074 13.7658 96.239 13.7195 96.3517 13.6872C96.4565 13.6563 96.5158 13.6677 96.5577 13.7018C96.6104 13.8496 96.6229 14.0799 96.775 14.2276C96.9691 14.4158 97.0959 14.3847 97.2555 14.4606C97.3152 14.5019 97.3708 14.5492 97.4232 14.6005L97.5185 14.6901C97.6534 14.8903 97.561 15.0507 97.7846 15.2676L98.3135 15.7595C98.4102 15.8558 98.534 15.9203 98.6683 15.9443C98.6997 16.0591 98.7626 16.163 98.8515 16.2437C99.1098 16.4955 99.0841 16.5224 99.3438 16.7743C99.4178 16.8466 99.5351 16.8367 99.6574 16.808C99.6999 16.8599 99.7531 16.9013 99.8131 16.9305C99.8731 16.9597 99.9385 16.9752 100.006 16.9773C100.142 16.9591 100.267 16.893 100.359 16.7915C100.468 16.8412 100.59 16.8572 100.708 16.8374C100.963 16.8001 101.019 16.6772 101.162 16.592L101.39 16.5653C101.461 16.5553 101.532 16.5416 101.602 16.5243C101.775 16.568 101.86 16.6895 102.123 16.6522C102.476 16.6005 102.455 16.4561 102.807 16.405C103.159 16.3539 103.168 16.4143 103.521 16.3626C103.736 16.3312 103.903 16.153 104.049 16.0845C104.118 16.1109 104.177 16.1585 104.217 16.2201C104.244 16.2473 104.264 16.2803 104.276 16.3166C104.287 16.3531 104.291 16.3917 104.285 16.4295C104.127 16.5339 103.979 16.6534 103.843 16.7852C103.793 16.8392 103.755 16.9019 103.73 16.9722C103.706 17.0425 103.696 17.1162 103.701 17.189C103.67 17.2823 103.632 17.3732 103.588 17.4612C103.538 17.5538 103.51 17.6563 103.504 17.7613C103.463 17.8848 103.413 18.0052 103.355 18.1212C103.2 18.4324 103.068 18.3659 102.913 18.6771C102.758 18.9882 102.812 19.0148 102.657 19.326L102.339 19.9427C102.304 20.0367 102.293 20.1378 102.306 20.2372C102.32 20.3364 102.358 20.4306 102.417 20.5113L102.419 20.5186L102.51 20.6696C102.612 20.8294 102.661 20.8705 102.799 21.1142C102.972 21.422 102.755 21.5441 102.928 21.8518C102.967 21.9244 103.022 21.9866 103.09 22.033C103.134 22.1844 103.195 22.3293 103.271 22.4678C103.443 22.774 103.566 22.7043 103.739 23.0106C103.913 23.317 103.823 23.3676 103.996 23.6746C104.12 23.893 104.354 23.9036 104.405 23.9945C104.381 24.043 104.353 24.0891 104.321 24.1321C104.288 24.1791 104.251 24.2235 104.21 24.2625C104.106 24.2495 104.016 24.0559 103.772 24.0104C103.425 23.9462 103.438 23.8763 103.09 23.8121C102.915 23.7852 102.737 23.7701 102.559 23.7671C102.508 23.7376 102.452 23.717 102.394 23.7063C102.324 23.6919 102.253 23.6908 102.183 23.704L101.697 23.6117C101.569 23.586 101.436 23.6024 101.319 23.6599C101.224 23.5908 101.113 23.5452 100.997 23.5269L100.301 23.4232C100.196 23.4114 100.089 23.4251 99.9904 23.4629C99.8916 23.5003 99.8033 23.561 99.7328 23.6397C99.4897 23.8867 99.4222 23.8206 99.1791 24.069C99.0821 24.1665 98.9949 24.2741 98.9198 24.3898C98.8181 24.4029 98.7241 24.4511 98.6542 24.5262C98.4112 24.7731 98.4413 24.8027 98.1983 25.0496C98.1041 25.1428 98.0311 25.2552 97.9844 25.3792L97.7648 25.5919C97.5218 25.8389 97.4969 25.8141 97.2539 26.061C97.0839 26.2332 97.1131 26.4245 97.0355 26.486C96.9776 26.4801 96.9207 26.4665 96.8665 26.4454C96.8084 26.4255 96.7521 26.4008 96.6982 26.3716C96.6544 26.2685 96.7903 26.1303 96.7452 25.8753C96.7123 25.7061 96.6671 25.5396 96.61 25.377C96.6204 25.3075 96.6187 25.2368 96.605 25.1679L96.6044 25.1672Z" fill="#111111"/>
<path fill-rule="evenodd" clip-rule="evenodd" d="M72.61 19.0401C72.8089 19.0406 72.9994 19.1201 73.1397 19.2611C73.28 19.402 73.3586 19.593 73.3581 19.7919L73.3342 31.7813C73.334 31.8799 73.3144 31.9774 73.2765 32.0684C73.2386 32.1593 73.1832 32.2419 73.1133 32.3115C73.0435 32.381 72.9607 32.4361 72.8696 32.4736C72.7785 32.5112 72.6809 32.5304 72.5823 32.5302C72.4838 32.53 72.3863 32.5104 72.2953 32.4725C72.2044 32.4346 72.1218 32.3792 72.0522 32.3094C71.9827 32.2395 71.9276 32.1567 71.8901 32.0656C71.8525 31.9745 71.8333 31.8769 71.8335 31.7784L71.8589 19.789C71.8594 19.5901 71.9389 19.3996 72.0798 19.2593C72.2208 19.119 72.4111 19.0396 72.61 19.0401ZM86.4463 26.471C86.5248 26.5306 86.5907 26.605 86.6404 26.6901C86.6901 26.7751 86.7226 26.8692 86.7359 26.9668C86.7493 27.0644 86.7432 27.1637 86.7182 27.2589C86.6932 27.3542 86.6496 27.4436 86.59 27.5221L81.6033 34.0966C81.5437 34.1751 81.4693 34.2411 81.3843 34.2908C81.2992 34.3405 81.2052 34.373 81.1076 34.3864C80.9105 34.4135 80.7107 34.3612 80.5521 34.2409C80.4736 34.1814 80.4076 34.107 80.3579 34.0219C80.3081 33.9369 80.2756 33.8429 80.2622 33.7453C80.2488 33.6477 80.2548 33.5484 80.2797 33.4531C80.3047 33.3578 80.3482 33.2683 80.4077 33.1898L85.3952 26.6147C85.5154 26.4563 85.6936 26.3521 85.8905 26.325C86.0875 26.2979 86.2878 26.3509 86.4463 26.471ZM58.0454 25.4621C58.1974 25.3339 58.3942 25.2713 58.5924 25.288C58.7906 25.3048 58.974 25.3997 59.1023 25.5517L64.899 32.4219C65.0273 32.574 65.0899 32.7707 65.0731 32.9689C65.0563 33.1671 64.9615 33.3505 64.8094 33.4788C64.6574 33.6071 64.4607 33.6697 64.2625 33.6529C64.0643 33.6361 63.8808 33.5413 63.7526 33.3892L57.9558 26.519C57.8275 26.367 57.7649 26.1702 57.7817 25.972C57.7985 25.7738 57.8934 25.5904 58.0454 25.4621Z" fill="#111111"/>
<path d="M63.5851 15.2819C64.3681 14.6212 64.4673 13.4509 63.8067 12.6679C63.146 11.8849 61.9757 11.7857 61.1927 12.4463C60.4097 13.107 60.3105 14.2773 60.9711 15.0603C61.6318 15.8433 62.8021 15.9425 63.5851 15.2819Z" fill="#1BDBDB"/>
<path d="M64.9966 13.2796C65.0158 12.8775 64.8126 12.5374 64.6072 12.3901C64.4492 11.9176 64.2401 11.8062 63.9091 11.6C63.6445 11.4569 63.2466 11.2366 62.8969 11.2098C62.535 11.3189 62.0487 11.0946 61.7738 11.1813C61.3368 11.2884 61.2056 11.4383 60.8527 11.583C60.6296 11.7961 60.4156 12.1193 60.2125 12.4058C60.0319 12.8121 59.9176 13.0131 59.6728 13.289C59.6627 13.5671 59.7164 13.8881 59.7182 14.3275C59.8198 14.6867 59.9689 14.9704 60.047 15.3297C60.1212 15.3758 60.3227 15.8534 60.6781 16.056C60.9554 16.2838 61.4156 16.3718 61.758 16.5094C62.1251 16.6249 62.5958 16.6308 62.9238 16.5202C63.1811 16.4313 63.4974 16.3162 63.8014 16.1368C64.1837 15.9138 64.4102 15.6101 64.6084 15.3565C64.8022 15.0713 64.9462 14.7457 64.9821 14.4302C65.0524 14.0451 65.0657 13.6623 64.9966 13.2796ZM63.5379 14.1218C63.3854 14.473 63.4518 14.7859 62.9985 14.9014C62.6409 15.1273 62.1787 15.1378 62.0651 15.0714C61.7379 14.8713 61.3732 14.8872 61.2833 14.5326C61.1011 14.1878 60.934 13.9402 61.1126 13.5998C61.2044 13.2946 61.3116 13.0433 61.652 12.8202C61.9702 12.6577 62.2689 12.5744 62.5854 12.6502C63.0025 12.7523 63.0967 12.9057 63.3671 13.1891C63.5266 13.3921 63.6671 13.8454 63.5379 14.1218Z" fill="#111111"/>
<path d="M39.1661 40.3759C39.2 40.33 39.2634 40.3345 39.3302 40.3493L39.3324 40.3547C39.3806 40.3312 39.4339 40.3242 39.4864 40.333C39.5365 40.3367 39.5846 40.3538 39.6258 40.3825C39.6669 40.4112 39.6996 40.4505 39.7204 40.4962L39.7826 40.7191C39.8442 40.7641 39.8888 40.8286 39.9094 40.9021L40.0375 41.3281C40.1032 41.5398 39.9576 41.5882 40.0233 41.8C40.0478 41.883 40.0944 41.9554 40.1582 42.0119C40.2113 42.0579 40.2498 42.1186 40.2689 42.1863C40.2905 42.2833 40.2868 42.3842 40.2582 42.4794C40.2558 42.5118 40.2606 42.5443 40.2722 42.5746C40.2841 42.6047 40.3023 42.6319 40.3255 42.6546C40.4522 42.7934 40.5186 42.7397 40.6968 42.7982C40.8749 42.8568 40.9144 42.7396 41.0926 42.7982C41.2239 42.8422 41.2383 42.9138 41.3087 42.9716C41.3465 42.9783 41.3838 42.988 41.4202 43.0004L41.7695 43.1349C41.9477 43.1934 41.9721 43.1189 42.1503 43.1774L42.3045 43.2327C42.3754 43.2358 42.4456 43.2489 42.5129 43.2716C42.5679 43.2961 42.6163 43.3332 42.6541 43.38C42.6916 43.4264 42.7188 43.4813 42.7315 43.5403C42.7351 43.6025 42.7248 43.6648 42.7013 43.7225C42.6783 43.7805 42.6423 43.8323 42.5958 43.8748C42.5416 43.9126 42.4801 43.9385 42.4146 43.95C42.3629 44.0119 42.3022 44.0655 42.2344 44.1092C42.1766 44.1498 42.1064 44.1686 42.036 44.1625C41.9852 44.2246 41.9249 44.2783 41.8573 44.3215L41.4894 44.5447C41.3103 44.6631 41.339 44.7078 41.1599 44.8263C41.0253 44.9146 40.9478 44.8727 40.8748 44.9251L40.8178 45.0289C40.7909 45.0738 40.7724 45.1226 40.7628 45.1745C40.7737 45.2408 40.8224 45.2908 40.8245 45.426C40.8273 45.4898 40.8116 45.5531 40.7793 45.6081L40.7737 45.8585L40.791 46.2171C40.7941 46.2409 40.7958 46.2649 40.7962 46.2891C40.7988 46.5042 40.8478 46.5027 40.8505 46.7178L40.8571 47.1477C40.8573 47.1869 40.7452 47.1966 40.6943 47.2219L40.6817 47.2449C40.6565 47.2925 40.7049 47.4052 40.6548 47.4311C40.6333 47.441 40.6089 47.445 40.5855 47.4409C40.5621 47.4368 40.5402 47.4276 40.5224 47.4114C40.4799 47.3863 40.4391 47.3475 40.398 47.3172L40.3601 47.2894C40.2339 47.224 40.1489 47.3101 40.0122 47.209C39.8612 47.0969 39.9144 47.0243 39.7643 46.9128C39.6141 46.8014 39.5747 46.8543 39.4245 46.7429C39.3866 46.7151 39.351 46.6827 39.3218 46.6452C39.2439 46.6265 39.1706 46.5926 39.1061 46.5452C38.9559 46.4337 38.9819 46.3982 38.8317 46.2867C38.7861 46.2528 38.7446 46.2138 38.708 46.1704C38.6556 46.144 38.5982 46.1292 38.5396 46.1269C38.4825 46.1171 38.4249 46.1099 38.367 46.1054C38.3073 46.1226 38.2649 46.1581 38.1392 46.1953C38.079 46.2148 38.015 46.2193 37.9527 46.2085L37.7078 46.2878C37.6322 46.3091 37.5585 46.3345 37.4854 46.3641C37.444 46.4268 37.3813 46.4723 37.3089 46.4922C37.0988 46.5541 37.0894 46.5204 36.8785 46.5817L36.6351 46.6558C36.5838 46.6932 36.526 46.7206 36.4646 46.7367C36.4508 46.74 36.4373 46.741 36.424 46.7371C36.4106 46.7331 36.3985 46.7276 36.388 46.7183C36.2892 46.7283 36.1904 46.7002 36.1116 46.6398C36.0863 46.599 36.069 46.5542 36.0605 46.5061C36.0522 46.4581 36.0535 46.409 36.0643 46.3615C36.0568 46.3505 36.0517 46.338 36.0496 46.3248C36.0475 46.3116 36.0484 46.2982 36.0521 46.2854C36.0763 46.2122 36.1115 46.1431 36.1564 46.0805L36.2259 45.8881C36.296 45.6834 36.2481 45.6669 36.3182 45.4622L36.4569 45.0531C36.4893 44.9633 36.543 44.8835 36.6115 44.8188C36.6085 44.7636 36.6171 44.7097 36.6361 44.6587C36.6585 44.5965 36.6985 44.5428 36.7518 44.503C36.7728 44.4291 36.7731 44.3508 36.7527 44.2768C36.7165 44.0561 36.6103 44.1436 36.4771 43.9657C36.4256 43.8997 36.3971 43.8186 36.3946 43.7348C36.3202 43.7168 36.2545 43.6726 36.2092 43.6101C36.1492 43.5238 36.1026 43.429 36.0708 43.3288C36.0349 43.3 36.0029 43.2666 35.9757 43.2293C35.9327 43.1727 35.8931 43.1136 35.8569 43.0524C35.7999 43.0003 35.7484 42.9426 35.703 42.8801C35.5697 42.7022 35.5465 42.721 35.4132 42.5431C35.3836 42.4846 35.3671 42.4203 35.3649 42.3548C35.3631 42.2889 35.3751 42.2234 35.4002 42.1625C35.4487 42.0699 35.614 42.0417 35.7173 42.0466L36.1622 42.0565C36.1933 42.0574 36.2242 42.0605 36.2548 42.0657C36.3897 42.0558 36.4248 42.0084 36.6099 42.0168C36.6878 42.0185 36.7638 42.0407 36.8302 42.0813C36.8954 42.0351 36.9745 42.0126 37.0543 42.0175C37.1393 42.0198 37.2215 42.0477 37.2903 42.0977C37.3553 42.0713 37.4256 42.0601 37.4956 42.065C37.7173 42.075 37.7317 42.2436 37.9339 42.1492C37.9806 42.1295 38.0201 42.0994 38.0519 42.0595C38.0833 42.02 38.1035 41.9728 38.1102 41.9227C38.1257 41.8759 38.1489 41.8319 38.1787 41.7925L38.1953 41.7725C38.3056 41.6189 38.2782 41.584 38.4012 41.4187C38.4482 41.3534 38.5075 41.2979 38.5758 41.2552C38.5736 41.1842 38.5964 41.1134 38.6404 41.0577C38.7689 40.8853 38.833 40.9332 38.9615 40.7608L39.0916 40.6011C39.0903 40.5197 39.1166 40.4404 39.1661 40.3759Z" fill="#111111"/>
<path d="M110.643 41.0389C110.653 41.0108 110.825 40.8986 110.729 41.0314C111.03 41.0219 111.297 41.0652 111.338 41.6298C111.44 41.9376 111.079 42.3801 110.803 42.3496L109.228 42.5195C108.906 42.5553 108.677 42.8784 108.714 43.235L108.737 43.4198C108.891 44.3181 108.895 45.1334 108.777 45.2317L108.775 45.2399C108.722 45.4899 108.64 45.8783 108.195 45.9056C107.877 45.8003 107.686 45.5194 107.584 45.2586C107.493 45.1794 107.561 44.4646 107.544 43.4385C107.557 43.0361 107.226 42.7218 106.867 42.7883C106.105 42.9288 105.49 43.0853 105.53 42.906C105.22 42.9763 104.84 42.6323 104.876 42.3116C104.916 41.7859 104.87 41.6987 105.411 41.5918L106.998 41.4563C107.298 41.4165 107.518 41.1238 107.504 40.7891L107.468 40.0811C107.41 39.1745 107.391 38.1628 107.428 38.2692C107.559 37.9228 107.797 37.4271 108.01 37.5953C108.482 37.8971 108.662 37.7403 108.622 38.2423L108.662 40.0543L108.683 40.4858C108.693 40.8582 108.981 41.1474 109.316 41.1132L110.643 41.0389Z" fill="#111111"/>
<path d="M107.585 140.282C108.368 139.621 108.467 138.451 107.807 137.668C107.146 136.885 105.976 136.786 105.193 137.446C104.41 138.107 104.31 139.277 104.971 140.06C105.632 140.843 106.802 140.943 107.585 140.282Z" fill="#1BDBDB"/>
<path d="M108.997 138.28C109.016 137.877 108.813 137.537 108.607 137.39C108.449 136.918 108.24 136.806 107.909 136.6C107.645 136.457 107.247 136.237 106.897 136.21C106.535 136.319 106.049 136.095 105.774 136.181C105.337 136.288 105.206 136.438 104.853 136.583C104.63 136.796 104.416 137.119 104.212 137.406C104.032 137.812 103.918 138.013 103.673 138.289C103.663 138.567 103.716 138.888 103.718 139.328C103.82 139.687 103.969 139.97 104.047 140.33C104.121 140.376 104.323 140.853 104.678 141.056C104.955 141.284 105.416 141.372 105.758 141.509C106.125 141.625 106.596 141.631 106.924 141.52C107.181 141.431 107.497 141.316 107.801 141.137C108.184 140.914 108.41 140.61 108.608 140.357C108.802 140.071 108.946 139.746 108.982 139.43C109.052 139.045 109.066 138.662 108.997 138.28ZM107.538 139.122C107.385 139.473 107.452 139.786 106.998 139.901C106.641 140.127 106.179 140.138 106.065 140.071C105.738 139.871 105.373 139.887 105.283 139.533C105.101 139.188 104.934 138.94 105.113 138.6C105.204 138.295 105.312 138.043 105.652 137.82C105.97 137.658 106.269 137.574 106.585 137.65C107.003 137.752 107.097 137.906 107.367 138.189C107.527 138.392 107.667 138.845 107.538 139.122Z" fill="#111111"/>
</svg>
